SplineFontDB: 3.0
FontName: Journey_Glyph_WIP
FullName: Journey_Glyph_WIP
FamilyName: Journey Glyph WIP
Weight: Regular
Copyright: Copyright (c) 2017, mirror12k
UComments: "2017-9-7: Created with FontForge (http://fontforge.org)"
Version: 001.000
ItalicAngle: 0
UnderlinePosition: -100
UnderlineWidth: 50
Ascent: 800
Descent: 200
InvalidEm: 0
LayerCount: 2
Layer: 0 0 "Back" 1
Layer: 1 0 "Fore" 0
XUID: [1021 477 -1252527436 8278373]
StyleMap: 0x0000
FSType: 0
OS2Version: 0
OS2_WeightWidthSlopeOnly: 0
OS2_UseTypoMetrics: 1
CreationTime: 1504817616
ModificationTime: 1504986541
OS2TypoAscent: 0
OS2TypoAOffset: 1
OS2TypoDescent: 0
OS2TypoDOffset: 1
OS2TypoLinegap: 90
OS2WinAscent: 0
OS2WinAOffset: 1
OS2WinDescent: 0
OS2WinDOffset: 1
HheadAscent: 0
HheadAOffset: 1
HheadDescent: 0
HheadDOffset: 1
MarkAttachClasses: 1
DEI: 91125
Encoding: ISO8859-1
UnicodeInterp: none
NameList: AGL For New Fonts
DisplaySize: -48
AntiAlias: 1
FitToEm: 0
WinInfo: 0 27 10
BeginPrivate: 0
EndPrivate
Grid
500 300 m 1
 300 300 l 1
 300 500 l 1
 500 500 l 1
 500 300 l 1
400 200 m 29
 573.205078125 300 l 29
 573.205078125 500 l 29
 400 600 l 29
 226.794921875 500 l 29
 226.794921875 300 l 29
 400 200 l 29
400 0 m 25
 746.41015625 200 l 25
 746.41015625 600 l 25
 400 800 l 25
 53.58984375 600 l 25
 53.58984375 200 l 25
 400 0 l 25
600 600 m 1
 600 200 l 1
 200 200 l 1
 200 600 l 1
 600 600 l 1
  Spiro
    600 600 v
    600 200 v
    200 200 v
    200 600 v
    0 0 z
  EndSpiro
100 100 m 1
 100 700 l 1
 700 700 l 1
 700 100 l 1
 100 100 l 1
  Spiro
    100 100 v
    100 700 v
    700 700 v
    700 100 v
    0 0 z
  EndSpiro
0 400 m 25
 800 400 l 1025
  Spiro
    0 400 {
    800 400 v
    0 0 z
  EndSpiro
400 800 m 25
 400 0 l 1025
  Spiro
    400 800 {
    400 0 v
    0 0 z
  EndSpiro
EndSplineSet
BeginChars: 256 61

StartChar: A
Encoding: 65 65 0
Width: 800
VWidth: 0
Flags: W
HStem: 110 40<360 440> 320 40<150 182.194 365.604 434.396 617.783 650> 440 40<150 182.217 365.604 434.396 617.806 650> 567 21G<270 300.5 499.5 530> 642 20G<232 271.565 528.435 568> 650 40<360 440>
VStem: 110 40<360 440> 320 40<150 182.217 365.604 434.396 617.806 650> 440 40<150 182.194 365.604 434.396 617.783 650> 650 40<360 440>
LayerCount: 2
Fore
SplineSet
320 400 m 0xf3c0
 320 444 356 480 400 480 c 0
 444 480 480 444 480 400 c 0
 480 356 444 320 400 320 c 0
 356 320 320 356 320 400 c 0xf3c0
252 195 m 1
 290 233 l 1
 311 219 335 209 360 204 c 1
 360 150 l 1
 440 150 l 1
 440 204 l 1
 465 209 489 219 510 233 c 1
 548 195 l 1
 605 252 l 1
 567 290 l 1
 581 311 591 335 596 360 c 1
 650 360 l 1
 650 440 l 1
 596 440 l 1
 591 465 581 489 567 510 c 1
 605 548 l 1
 548 605 l 1
 510 567 l 1
 489 581 465 591 440 596 c 1
 440 650 l 1
 360 650 l 1xf7c0
 360 596 l 1
 335 591 311 581 290 567 c 1
 252 605 l 1
 195 548 l 1
 233 510 l 1
 219 489 209 465 204 440 c 1
 150 440 l 1
 150 360 l 1
 204 360 l 1
 209 335 219 311 233 290 c 1
 195 252 l 1
 252 195 l 1
360 400 m 0
 360 378 378 360 400 360 c 0
 422 360 440 378 440 400 c 0
 440 422 422 440 400 440 c 0
 378 440 360 422 360 400 c 0
626 320 m 1
 624 313 621 306 616 297 c 1
 662 252 l 1
 548 138 l 1
 503 184 l 1
 496 180 489 177 480 174 c 1
 480 110 l 1
 320 110 l 1
 320 174 l 1
 313 176 306 179 297 184 c 1
 252 138 l 1
 138 252 l 1
 184 297 l 1
 180 304 177 311 174 320 c 1
 110 320 l 1
 110 480 l 1
 174 480 l 1
 176 487 179 494 184 503 c 1
 138 548 l 1
 252 662 l 1xfbc0
 297 616 l 1
 304 620 311 623 320 626 c 1
 320 690 l 1
 480 690 l 1xf7c0
 480 626 l 1
 487 624 494 621 503 616 c 1
 548 662 l 1xfbc0
 662 548 l 1
 616 503 l 1
 620 496 623 489 626 480 c 1
 690 480 l 1
 690 320 l 1
 626 320 l 1
EndSplineSet
Validated: 1
EndChar

StartChar: zero
Encoding: 48 48 1
Width: 800
VWidth: 0
Flags: W
HStem: 65 40<365.004 434.996> 497 40<288.141 322 478 511.859> 695 40<381.019 419.014>
VStem: 245 43<537.047 577.993> 322 40<105.125 497> 438 40<105.3 497> 512 43<537.416 582.688>
LayerCount: 2
Fore
SplineSet
400 695 m 0
 396 695 396 694 394 692 c 2
 291 560 l 1
 291 560 285 548 288 543 c 24
 291 537 295 537 302 537 c 2
 362 537 l 1
 362 119 l 9
 363 115 363 112 365 109 c 24
 365 106 371 105 371 105 c 1
 390 105 410 105 429 105 c 1
 429 105 435 106 435 109 c 24
 437 112 437 115 438 119 c 17
 438 537 l 1
 498 537 l 2
 505 537 509 537 512 543 c 24
 515 548 509 560 509 560 c 1
 406 692 l 2
 404 694 403 695 400 695 c 0
469 87 m 0
 456 68 444 67 442 67 c 0
 439 66 438 65 436 65 c 0
 412 65 388 65 364 65 c 1
 359 66 l 1
 359 66 345 67 333 85 c 0
 322 100 322 114 322 114 c 1
 322 497 l 1
 302 497 l 2
 299 497 266 497 252 525 c 0
 247 535 245 544 245 551 c 0
 245 569 255 578 255 578 c 2
 255 579 256 580 257 581 c 2
 259 585 l 1
 363 717 l 1
 364 719 l 1
 373 728 l 2
 383 737 393 735 400 735 c 0
 421 735 433 722 436 719 c 1
 437 717 l 1
 541 585 l 1
 543 581 l 1
 545 578 l 1
 545 578 555 570 555 552 c 0
 555 545 553 536 548 525 c 0
 534 497 501 497 498 497 c 2
 478 497 l 1
 478 114 l 2
 478 113 478 102 469 87 c 0
EndSplineSet
Validated: 1
EndChar

StartChar: one
Encoding: 49 49 2
Width: 800
VWidth: 0
Flags: W
HStem: 245 43<537.416 582.688> 322 40<105.3 497> 438 40<105.125 497> 512 43<537.047 577.993>
VStem: 65 40<365.004 434.996> 497 40<288.141 322 478 511.859> 695 40<380.986 418.981>
LayerCount: 2
Fore
SplineSet
695 400 m 0
 695 404 694 404 692 406 c 2
 560 509 l 1
 560 509 548 515 543 512 c 24
 537 509 537 505 537 498 c 2
 537 438 l 1
 119 438 l 9
 115 437 112 437 109 435 c 24
 106 435 105 429 105 429 c 1
 105 410 105 390 105 371 c 1
 105 371 106 365 109 365 c 24
 112 363 115 363 119 362 c 17
 537 362 l 1
 537 302 l 2
 537 295 537 291 543 288 c 24
 548 285 560 291 560 291 c 1
 692 394 l 2
 694 396 695 397 695 400 c 0
87 331 m 0
 68 344 67 356 67 358 c 0
 66 361 65 362 65 364 c 0
 65 388 65 412 65 436 c 1
 66 441 l 1
 66 441 67 455 85 467 c 0
 100 478 114 478 114 478 c 1
 497 478 l 1
 497 498 l 2
 497 501 497 534 525 548 c 0
 535 553 544 555 551 555 c 0
 569 555 578 545 578 545 c 2
 579 545 580 544 581 543 c 2
 585 541 l 1
 717 437 l 1
 719 436 l 1
 728 427 l 2
 737 417 735 407 735 400 c 0
 735 379 722 367 719 364 c 1
 717 363 l 1
 585 259 l 1
 581 257 l 1
 578 255 l 1
 578 255 570 245 552 245 c 0
 545 245 536 247 525 252 c 0
 497 266 497 299 497 302 c 2
 497 322 l 1
 114 322 l 2
 113 322 102 322 87 331 c 0
EndSplineSet
Validated: 1
EndChar

StartChar: two
Encoding: 50 50 3
Width: 800
VWidth: 0
Flags: W
HStem: 65 40<380.986 418.981> 263 40<288.141 322 478 511.859> 695 40<365.004 434.996>
VStem: 245 43<217.312 262.584> 322 40<303 694.7> 438 40<303 694.875> 512 43<222.007 262.953>
LayerCount: 2
Fore
SplineSet
400 105 m 0
 404 105 404 106 406 108 c 2
 509 240 l 1
 509 240 515 252 512 257 c 24
 509 263 505 263 498 263 c 2
 438 263 l 1
 438 681 l 9
 437 685 437 688 435 691 c 24
 435 694 429 695 429 695 c 1
 410 695 390 695 371 695 c 1
 371 695 365 694 365 691 c 24
 363 688 363 685 362 681 c 17
 362 263 l 1
 302 263 l 2
 295 263 291 263 288 257 c 24
 285 252 291 240 291 240 c 1
 394 108 l 2
 396 106 397 105 400 105 c 0
331 713 m 0
 344 732 356 733 358 733 c 0
 361 734 362 735 364 735 c 0
 388 735 412 735 436 735 c 1
 441 734 l 1
 441 734 455 733 467 715 c 0
 478 700 478 686 478 686 c 1
 478 303 l 1
 498 303 l 2
 501 303 534 303 548 275 c 0
 553 265 555 256 555 249 c 0
 555 231 545 222 545 222 c 2
 545 221 544 220 543 219 c 2
 541 215 l 1
 437 83 l 1
 436 81 l 1
 427 72 l 2
 417 63 407 65 400 65 c 0
 379 65 367 78 364 81 c 1
 363 83 l 1
 259 215 l 1
 257 219 l 1
 255 222 l 1
 255 222 245 230 245 248 c 0
 245 255 247 264 252 275 c 0
 266 303 299 303 302 303 c 2
 322 303 l 1
 322 686 l 2
 322 687 322 698 331 713 c 0
EndSplineSet
Validated: 1
EndChar

StartChar: three
Encoding: 51 51 4
Width: 800
VWidth: 0
Flags: W
HStem: 245 43<222.007 262.953> 322 40<303 694.875> 438 40<303 694.7> 512 43<217.312 262.584>
VStem: 65 40<381.019 419.014> 263 40<288.141 322 478 511.859> 695 40<365.004 434.996>
LayerCount: 2
Fore
SplineSet
105 400 m 0
 105 396 106 396 108 394 c 2
 240 291 l 1
 240 291 252 285 257 288 c 24
 263 291 263 295 263 302 c 2
 263 362 l 1
 681 362 l 9
 685 363 688 363 691 365 c 24
 694 365 695 371 695 371 c 1
 695 390 695 410 695 429 c 1
 695 429 694 435 691 435 c 24
 688 437 685 437 681 438 c 17
 263 438 l 1
 263 498 l 2
 263 505 263 509 257 512 c 24
 252 515 240 509 240 509 c 1
 108 406 l 2
 106 404 105 403 105 400 c 0
713 469 m 0
 732 456 733 444 733 442 c 0
 734 439 735 438 735 436 c 0
 735 412 735 388 735 364 c 1
 734 359 l 1
 734 359 733 345 715 333 c 0
 700 322 686 322 686 322 c 1
 303 322 l 1
 303 302 l 2
 303 299 303 266 275 252 c 0
 265 247 256 245 249 245 c 0
 231 245 222 255 222 255 c 2
 221 255 220 256 219 257 c 2
 215 259 l 1
 83 363 l 1
 81 364 l 1
 72 373 l 2
 63 383 65 393 65 400 c 0
 65 421 78 433 81 436 c 1
 83 437 l 1
 215 541 l 1
 219 543 l 1
 222 545 l 1
 222 545 230 555 248 555 c 0
 255 555 264 553 275 548 c 0
 303 534 303 501 303 498 c 2
 303 478 l 1
 686 478 l 2
 687 478 698 478 713 469 c 0
EndSplineSet
Validated: 1
EndChar

StartChar: four
Encoding: 52 52 5
Width: 800
VWidth: 0
Flags: W
VStem: 362 76<105 537>
LayerCount: 2
Fore
SplineSet
400 695 m 0
 403 695 404 694 406 692 c 2
 509 560 l 1
 509 560 515 548 512 543 c 24
 509 537 505 537 498 537 c 2
 438 537 l 1
 438 119 l 9
 437 115 437 112 435 109 c 24
 435 106 429 105 429 105 c 1
 410 105 390 105 371 105 c 1
 371 105 365 106 365 109 c 24
 363 112 363 115 362 119 c 17
 362 537 l 1
 302 537 l 2
 295 537 291 537 288 543 c 24
 285 548 291 560 291 560 c 1
 394 692 l 2
 396 694 396 695 400 695 c 0
EndSplineSet
Validated: 1
EndChar

StartChar: five
Encoding: 53 53 6
Width: 800
VWidth: 0
Flags: W
HStem: 362 76<105 537>
LayerCount: 2
Fore
SplineSet
695 400 m 0
 695 397 694 396 692 394 c 2
 560 291 l 1
 560 291 548 285 543 288 c 24
 537 291 537 295 537 302 c 2
 537 362 l 1
 119 362 l 9
 115 363 112 363 109 365 c 24
 106 365 105 371 105 371 c 1
 105 390 105 410 105 429 c 1
 105 429 106 435 109 435 c 24
 112 437 115 437 119 438 c 17
 537 438 l 1
 537 498 l 2
 537 505 537 509 543 512 c 24
 548 515 560 509 560 509 c 1
 692 406 l 2
 694 404 695 404 695 400 c 0
EndSplineSet
Validated: 1
EndChar

StartChar: six
Encoding: 54 54 7
Width: 800
VWidth: 0
Flags: W
VStem: 362 76<263 695>
LayerCount: 2
Fore
SplineSet
400 105 m 0
 397 105 396 106 394 108 c 2
 291 240 l 1
 291 240 285 252 288 257 c 24
 291 263 295 263 302 263 c 2
 362 263 l 1
 362 681 l 9
 363 685 363 688 365 691 c 24
 365 694 371 695 371 695 c 1
 390 695 410 695 429 695 c 1
 429 695 435 694 435 691 c 24
 437 688 437 685 438 681 c 17
 438 263 l 1
 498 263 l 2
 505 263 509 263 512 257 c 24
 515 252 509 240 509 240 c 1
 406 108 l 2
 404 106 404 105 400 105 c 0
EndSplineSet
Validated: 1
EndChar

StartChar: seven
Encoding: 55 55 8
Width: 800
VWidth: 0
Flags: W
HStem: 362 76<263 695>
LayerCount: 2
Fore
SplineSet
105 400 m 0
 105 403 106 404 108 406 c 2
 240 509 l 1
 240 509 252 515 257 512 c 24
 263 509 263 505 263 498 c 2
 263 438 l 1
 681 438 l 9
 685 437 688 437 691 435 c 24
 694 435 695 429 695 429 c 1
 695 410 695 390 695 371 c 1
 695 371 694 365 691 365 c 24
 688 363 685 363 681 362 c 17
 263 362 l 1
 263 302 l 2
 263 295 263 291 257 288 c 24
 252 285 240 291 240 291 c 1
 108 394 l 2
 106 396 105 396 105 400 c 0
EndSplineSet
Validated: 1
EndChar

StartChar: eight
Encoding: 56 56 9
Width: 800
VWidth: 0
Flags: W
HStem: 0 80<290.165 509.835> 720 80<290.165 509.835>
VStem: 0 80<290.165 509.835> 720 80<290.165 509.835>
LayerCount: 2
Fore
SplineSet
80 400 m 0
 80 223 223 80 400 80 c 0
 577 80 720 223 720 400 c 0
 720 577 577 720 400 720 c 0
 223 720 80 577 80 400 c 0
0 400 m 0
 0 621 179 800 400 800 c 0
 621 800 800 621 800 400 c 0
 800 179 621 0 400 0 c 0
 179 0 0 179 0 400 c 0
EndSplineSet
Validated: 1
EndChar

StartChar: nine
Encoding: 57 57 10
Width: 800
VWidth: 0
Flags: W
HStem: 0 80<106.282 693.718> 720 80<106.282 693.718>
VStem: 0 80<106.282 693.718> 720 80<106.282 693.718>
LayerCount: 2
Fore
SplineSet
160 720 m 6
 116 720 80 684 80 640 c 6
 80 160 l 6
 80 116 116 80 160 80 c 6
 640 80 l 6
 684 80 720 116 720 160 c 6
 720 640 l 6
 720 684 684 720 640 720 c 6
 160 720 l 6
100 800 m 2
 700 800 l 2
 755 800 800 755 800 700 c 2
 800 100 l 2
 800 45 755 0 700 0 c 2
 100 0 l 2
 45 0 0 45 0 100 c 2
 0 700 l 2
 0 755 45 800 100 800 c 2
EndSplineSet
Validated: 1
EndChar

StartChar: colon
Encoding: 58 58 11
Width: 800
VWidth: 0
Flags: W
HStem: 50 60<-32.3805 832.381> 876 120<367.07 432.93>
VStem: -137 102<88 150.041> 835 102<88 150.041>
LayerCount: 2
Fore
SplineSet
823 180 m 5
 440 844 l 5
 440 844 421 876 400 876 c 28
 379 876 360 844 360 844 c 5
 -23 180 l 5
 -23 180 -35 160 -35 143 c 4
 -35 138 -33 133 -31 129 c 12
 -20 111 17 110 17 110 c 5
 783 110 l 5
 783 110 820 111 831 129 c 20
 833 133 835 138 835 143 c 4
 835 160 823 180 823 180 c 5
923 137 m 5
 923 137 937 113 937 91 c 4
 937 85 936 78 933 73 c 12
 920 50 873 50 873 50 c 5
 -73 50 l 5
 -73 50 -120 50 -133 73 c 20
 -136 78 -137 85 -137 91 c 4
 -137 113 -123 137 -123 137 c 5
 350 956 l 5
 350 956 374 996 400 996 c 28
 426 996 450 956 450 956 c 5
 923 137 l 5
EndSplineSet
Validated: 1
EndChar

StartChar: semicolon
Encoding: 59 59 12
Width: 800
VWidth: 0
Flags: W
HStem: 0 80<286.714 509.835> 720 80<290.165 513.286>
VStem: 0 80<286.714 509.835> 720 80<290.165 513.286>
LayerCount: 2
Fore
SplineSet
0 400 m 0
 0 621 179 800 400 800 c 0
 621 800 800 621 800 400 c 0
 800 179 621 0 400 0 c 0
 179 0 0 179 0 400 c 0
196 153 m 5
 251 107 322 80 400 80 c 4
 577 80 720 223 720 400 c 4
 720 478 693 549 647 604 c 5
 196 153 l 5
604 647 m 5
 549 693 478 720 400 720 c 4
 223 720 80 577 80 400 c 4
 80 322 107 251 153 196 c 5
 604 647 l 5
EndSplineSet
Validated: 1
EndChar

StartChar: less
Encoding: 60 60 13
Width: 800
VWidth: 0
Flags: W
LayerCount: 2
Fore
SplineSet
701 734 m 0
 719 734 734 719 734 701 c 0
 734 693 730 684 724 678 c 6
 446 400 l 5
 724 122 l 6
 730 116 734 107 734 99 c 0
 734 81 719 66 701 66 c 0
 693 66 684 70 678 76 c 6
 400 354 l 5
 122 76 l 6
 116 70 107 66 99 66 c 0
 81 66 66 81 66 99 c 0
 66 107 70 116 76 122 c 6
 354 400 l 5
 76 678 l 6
 70 684 66 693 66 701 c 0
 66 719 81 734 99 734 c 0
 107 734 116 730 122 724 c 6
 400 446 l 5
 678 724 l 6
 684 730 693 734 701 734 c 0
EndSplineSet
Validated: 1
EndChar

StartChar: equal
Encoding: 61 61 14
Width: 800
VWidth: 0
Flags: W
HStem: 613 21G<183 192 608 617>
LayerCount: 2
Fore
SplineSet
611 633 m 0
 623 633 634 623 634 611 c 0
 634 605 632 599 627 595 c 6
 432 400 l 5
 627 205 l 6
 631 201 633 195 633 189 c 0
 633 177 623 166 611 166 c 0
 605 166 599 168 595 173 c 6
 400 368 l 5
 205 173 l 6
 201 168 195 166 189 166 c 0
 177 166 166 177 166 189 c 0
 166 195 168 201 173 205 c 6
 368 400 l 5
 173 595 l 6
 168 599 166 605 166 611 c 0
 166 623 177 634 189 634 c 0
 195 634 201 632 205 627 c 6
 400 432 l 5
 595 627 l 6
 599 631 605 633 611 633 c 0
EndSplineSet
Validated: 1
EndChar

StartChar: greater
Encoding: 62 62 15
Width: 800
VWidth: 0
Flags: W
HStem: 400 300
VStem: 326 20<468.534 535.607 669.025 700> 362 20<400 435.429 568.534 635.607> 372 20<468.534 535.607 669.025 700> 408 20<400 435.429 568.534 635.607> 418 20<468.534 535.607 669.025 700> 454 20<400 435.429 568.534 635.607>
LayerCount: 2
Fore
SplineSet
326 700 m 5xe2
 333 700 339 700 346 700 c 5
 346 655 382 666 382 600 c 4
 382 539 346 551 346 500 c 4
 346 455 382 466 382 400 c 5
 375 400 369 400 362 400 c 5
 362 451 326 439 326 500 c 4
 326 566 362 555 362 600 c 4
 362 651 326 639 326 700 c 5xe2
418 700 m 5xc6
 425 700 431 700 438 700 c 5
 438 655 474 666 474 600 c 4
 474 539 438 551 438 500 c 4
 438 455 474 466 474 400 c 5
 467 400 461 400 454 400 c 5
 454 451 418 439 418 500 c 4
 418 566 454 555 454 600 c 4
 454 651 418 639 418 700 c 5xc6
372 700 m 5xda
 379 700 385 700 392 700 c 5
 392 655 428 666 428 600 c 4
 428 539 392 551 392 500 c 4
 392 455 428 466 428 400 c 5
 421 400 415 400 408 400 c 5
 408 451 372 439 372 500 c 4
 372 566 408 555 408 600 c 4
 408 651 372 639 372 700 c 5xda
EndSplineSet
Validated: 1
EndChar

StartChar: B
Encoding: 66 66 16
Width: 800
VWidth: 0
Flags: W
HStem: 320 160<110 183.426 616.574 690> 360 80<364.393 435.607> 642 48G<232 271.565 320 480 528.435 568>
VStem: 320 160<110 183.426 616.574 690> 360 80<364.393 435.607>
LayerCount: 2
Fore
SplineSet
320 400 m 0xb0
 320 356 356 320 400 320 c 0
 444 320 480 356 480 400 c 0
 480 444 444 480 400 480 c 0
 356 480 320 444 320 400 c 0xb0
360 400 m 4x68
 360 422 378 440 400 440 c 4
 422 440 440 422 440 400 c 4
 440 378 422 360 400 360 c 4
 378 360 360 378 360 400 c 4x68
626 320 m 1xb0
 623 313 620 306 616 297 c 1
 662 252 l 1
 548 138 l 1
 503 184 l 1
 496 181 489 177 480 174 c 1
 480 110 l 1
 320 110 l 1
 320 174 l 1
 313 177 306 180 297 184 c 1
 252 138 l 1
 138 252 l 1
 184 297 l 1
 181 304 177 311 174 320 c 1
 110 320 l 1
 110 480 l 1
 174 480 l 1
 177 487 180 494 184 503 c 1
 138 548 l 1
 252 662 l 1
 297 616 l 1
 304 619 311 623 320 626 c 1
 320 690 l 1
 480 690 l 1
 480 626 l 1
 487 623 494 620 503 616 c 1
 548 662 l 1
 662 548 l 1
 616 503 l 1
 619 496 623 489 626 480 c 1
 690 480 l 1
 690 320 l 1
 626 320 l 1xb0
EndSplineSet
Validated: 1
EndChar

StartChar: C
Encoding: 67 67 17
Width: 800
VWidth: 0
Flags: W
HStem: 472 21G<534.5 564.5> 651 20G<505.5 530.69 590 639>
LayerCount: 2
Fore
SplineSet
639 562 m 5
 634 513 590 472 539 472 c 0
 530 472 522 473 514 475 c 5
 239 201 l 6
 234 196 228 193 222 193 c 0
 216 193 209 196 204 201 c 6
 169 236 l 6
 164 241 161 248 161 254 c 0
 161 260 164 267 169 272 c 6
 443 546 l 5
 441 554 440 563 440 572 c 0
 440 623 481 666 530 671 c 5
 531 642 l 29
 485 596 l 29
 502 534 l 29
 564 517 l 29
 610 563 l 29
 639 562 l 5
EndSplineSet
Validated: 1
EndChar

StartChar: D
Encoding: 68 68 18
Width: 800
VWidth: 0
Flags: W
HStem: 597 20G<558.379 610.412>
LayerCount: 2
Fore
SplineSet
181 209 m 2
 241 269 l 17
 199 311 l 1
 221 334 l 1
 250 306 l 1
 532 588 l 1
 617 617 l 1
 589 532 l 1
 306 249 l 1
 334 221 l 1
 312 198 l 1
 269 241 l 9
 209 180 l 2
 205 176 201 174 196 174 c 0
 185 174 176 186 176 197 c 0
 176 201 177 205 181 209 c 2
306 272 m 17
 575 541 l 1
 592 592 l 1
 289 289 l 25
 306 272 l 17
EndSplineSet
Validated: 1
EndChar

StartChar: E
Encoding: 69 69 19
Width: 800
VWidth: 0
Flags: W
HStem: 521 40<400 526>
LayerCount: 2
Fore
SplineSet
228 561 m 29
 572 561 l 29
 550 314 l 29
 400 186 l 29
 250 311 l 29
 228 561 l 29
400 238 m 5
 510 332 l 5
 526 521 l 5
 400 521 l 5
 400 238 l 5
EndSplineSet
Validated: 1
EndChar

StartChar: F
Encoding: 70 70 20
Width: 800
VWidth: 0
Flags: W
HStem: 600 20G<360 440>
VStem: 180 40<312 477> 390 20<227 394> 580 40<312 477>
CounterMasks: 1 70
LayerCount: 2
Fore
SplineSet
400 180 m 5
 180 290 l 5
 180 510 l 5
 400 620 l 5
 620 510 l 5
 620 290 l 5
 400 180 l 5
390 227 m 1
 390 394 l 1
 220 477 l 1
 220 312 l 1
 390 227 l 1
231 493 m 1
 400 411 l 1
 569 493 l 1
 400 578 l 1
 231 493 l 1
580 477 m 1
 410 394 l 1
 410 227 l 1
 580 312 l 1
 580 477 l 1
EndSplineSet
Validated: 1
EndChar

StartChar: G
Encoding: 71 71 21
Width: 800
VWidth: 0
Flags: W
HStem: 600 20G<360 440>
VStem: 580 40<312 477>
LayerCount: 2
Fore
SplineSet
400 180 m 1
 180 290 l 1
 180 510 l 1
 400 620 l 1
 620 510 l 1
 620 290 l 1
 400 180 l 1
231 493 m 1
 400 411 l 1
 569 493 l 1
 400 578 l 1
 231 493 l 1
580 477 m 1
 410 394 l 1
 410 227 l 1
 580 312 l 1
 580 477 l 1
EndSplineSet
Validated: 1
EndChar

StartChar: H
Encoding: 72 72 22
Width: 800
VWidth: 0
Flags: W
HStem: 200 30<332.314 467.686> 350 30<261.969 536.563> 420 30<262.735 537.619>
LayerCount: 2
Fore
SplineSet
245 400 m 5
 274 389 334 380 400 380 c 4
 466 380 524 389 555 400 c 5
 526 411 466 420 400 420 c 4
 334 420 276 411 245 400 c 5
568 373 m 5
 532 359 470 350 400 350 c 4
 330 350 268 359 232 373 c 5
 245 292 316 230 400 230 c 4
 484 230 555 292 568 373 c 5
200 400 m 4
 200 428 290 450 400 450 c 4
 510 450 600 428 600 400 c 4
 600 290 510 200 400 200 c 4
 290 200 200 290 200 400 c 4
EndSplineSet
Validated: 1
EndChar

StartChar: I
Encoding: 73 73 23
Width: 800
VWidth: 0
Flags: W
HStem: 200 180<310.154 490.737> 420 30<262.735 537.619>
VStem: 200 400<309.151 428>
LayerCount: 2
Fore
SplineSet
245 400 m 1
 274 389 334 380 400 380 c 0
 466 380 524 389 555 400 c 1
 526 411 466 420 400 420 c 0
 334 420 276 411 245 400 c 1
200 400 m 0
 200 428 290 450 400 450 c 0
 510 450 600 428 600 400 c 0
 600 290 510 200 400 200 c 0
 290 200 200 290 200 400 c 0
EndSplineSet
Validated: 1
EndChar

StartChar: J
Encoding: 74 74 24
Width: 800
VWidth: 0
Flags: W
HStem: 200 30<262.381 537.265> 251 24<345.867 454.133> 312 20<231.461 260> 371 24<289.194 510.639> 427 24<289.477 510.69>
VStem: 200 20<342.335 381.484>
LayerCount: 2
Fore
SplineSet
534 389 m 5
 505 378 456 371 400 371 c 4
 344 371 295 378 266 389 c 5
 276 324 333 275 400 275 c 4
 467 275 524 324 534 389 c 5
469 267 m 5
 448 257 425 251 400 251 c 4
 375 251 352 257 331 267 c 5
 295 263 264 257 245 250 c 5
 274 239 334 230 400 230 c 4
 466 230 524 239 555 250 c 5
 536 257 506 263 469 267 c 5
276 411 m 5
 300 402 347 395 400 395 c 4
 453 395 499 402 524 411 c 5
 500 420 453 427 400 427 c 4
 347 427 301 420 276 411 c 5
242 389 m 5
 228 384 220 372 220 362 c 4
 220 348 235 332 260 332 c 5
 250 349 245 369 242 389 c 5
240 409 m 4
 240 410 240 410 240 411 c 4
 240 433 312 451 400 451 c 4
 488 451 560 433 560 411 c 4
 560 364 540 321 507 292 c 5
 563 283 600 268 600 250 c 4
 600 222 510 200 400 200 c 4
 290 200 200 222 200 250 c 4
 200 268 237 283 293 292 c 5
 286 298 280 305 274 313 c 5
 270 312 265 312 260 312 c 4
 227 312 200 334 200 362 c 4
 200 384 217 402 240 409 c 4
EndSplineSet
Validated: 1
EndChar

StartChar: K
Encoding: 75 75 25
Width: 800
VWidth: 0
Flags: W
HStem: 200 30<262.381 537.265> 251 144<312.658 487.149> 312 20<231.461 260> 427 24<289.477 510.69>
VStem: 200 20<342.335 381.484>
LayerCount: 2
Fore
SplineSet
469 267 m 1xd8
 448 257 425 251 400 251 c 0
 375 251 352 257 331 267 c 1
 295 263 264 257 245 250 c 1
 274 239 334 230 400 230 c 0
 466 230 524 239 555 250 c 1
 536 257 506 263 469 267 c 1xd8
276 411 m 1
 300 402 347 395 400 395 c 0
 453 395 499 402 524 411 c 1
 500 420 453 427 400 427 c 0
 347 427 301 420 276 411 c 1
242 389 m 1
 228 384 220 372 220 362 c 0
 220 348 235 332 260 332 c 1xb8
 250 349 245 369 242 389 c 1
240 409 m 0
 240 410 240 410 240 411 c 0
 240 433 312 451 400 451 c 0
 488 451 560 433 560 411 c 0
 560 364 540 321 507 292 c 1
 563 283 600 268 600 250 c 0
 600 222 510 200 400 200 c 0
 290 200 200 222 200 250 c 0
 200 268 237 283 293 292 c 1
 286 298 280 305 274 313 c 1
 270 312 265 312 260 312 c 0
 227 312 200 334 200 362 c 0
 200 384 217 402 240 409 c 0
EndSplineSet
Validated: 1
EndChar

StartChar: L
Encoding: 76 76 26
Width: 800
VWidth: 0
Flags: W
HStem: 200 50<200 600> 400 28<309 400> 508 20G<217 257> 550 50<200 600>
VStem: 150 50<250 550> 600 50<250 550>
LayerCount: 2
Fore
SplineSet
400 400 m 29
 309 400 l 29
 309 428 l 29
 400 428 l 29
 400 400 l 29
301 464 m 29
 237 400 l 29
 217 420 l 29
 261 464 l 29
 217 508 l 5
 237 528 l 5
 301 464 l 29
200 600 m 2
 600 600 l 2
 628 600 650 578 650 550 c 2
 650 250 l 2
 650 222 628 200 600 200 c 2
 200 200 l 2
 172 200 150 222 150 250 c 2
 150 550 l 2
 150 578 172 600 200 600 c 2
200 550 m 1
 200 250 l 1
 600 250 l 1
 600 550 l 1
 200 550 l 1
EndSplineSet
Validated: 1
EndChar

StartChar: M
Encoding: 77 77 27
Width: 800
VWidth: 0
Flags: W
HStem: 213 59<238 562> 249 23<198 238 562 602> 297 12<206.001 217.999 224.001 235.999 242.001 253.999> 316 23<198 238 562 602> 375 23<198 238 562 602> 423 12<206.001 217.999 224.001 235.999 242.001 253.999> 442 23<198 238 562 602> 501 23<198 238 562 602> 549 12<206.001 217.999 224.001 235.999 242.001 253.999> 568 23<198 602>
VStem: 175 23<272 316 398 442 524 568> 206 12<297.001 308.999 423.001 434.999 549.001 560.999> 224 12<297.001 308.999 423.001 434.999 549.001 560.999> 242 12<297.001 308.999 423.001 434.999 549.001 560.999> 602 23<272 316 398 442 524 568>
LayerCount: 2
Fore
SplineSet
198 465 m 2x7ffe
 238 465 l 1
 238 501 l 1
 198 501 l 2
 185 501 175 511 175 524 c 2
 175 568 l 2
 175 581 185 591 198 591 c 2
 602 591 l 2
 615 591 625 581 625 568 c 2
 625 524 l 2
 625 511 615 501 602 501 c 2
 562 501 l 1
 562 465 l 1
 602 465 l 2
 614 465 625 455 625 442 c 2
 625 398 l 2
 625 385 615 375 602 375 c 2
 562 375 l 1
 562 339 l 1
 602 339 l 2
 614 339 625 329 625 316 c 2
 625 272 l 2
 625 259 615 249 602 249 c 2
 562 249 l 1x7ffe
 562 213 l 1
 238 213 l 1xbffe
 238 249 l 1
 198 249 l 2
 185 249 175 259 175 272 c 2
 175 316 l 2
 175 329 186 339 198 339 c 2
 238 339 l 1
 238 375 l 1
 198 375 l 2
 185 375 175 385 175 398 c 2
 175 442 l 2
 175 455 186 465 198 465 c 2x7ffe
242 555 m 0
 242 559 244 561 248 561 c 0
 252 561 254 559 254 555 c 0
 254 551 252 549 248 549 c 0
 244 549 242 551 242 555 c 0
224 555 m 0
 224 559 226 561 230 561 c 0
 234 561 236 559 236 555 c 0
 236 551 234 549 230 549 c 0
 226 549 224 551 224 555 c 0
206 555 m 0
 206 559 208 561 212 561 c 0
 216 561 218 559 218 555 c 0
 218 551 216 549 212 549 c 0
 208 549 206 551 206 555 c 0
198 568 m 1
 198 524 l 1
 602 524 l 1
 602 568 l 1
 198 568 l 1
242 429 m 0
 242 433 244 435 248 435 c 0
 252 435 254 433 254 429 c 0
 254 425 252 423 248 423 c 0
 244 423 242 425 242 429 c 0
224 429 m 0
 224 433 226 435 230 435 c 0
 234 435 236 433 236 429 c 0
 236 425 234 423 230 423 c 0
 226 423 224 425 224 429 c 0
206 429 m 0
 206 433 208 435 212 435 c 0
 216 435 218 433 218 429 c 0
 218 425 216 423 212 423 c 0
 208 423 206 425 206 429 c 0
198 442 m 1
 198 398 l 1
 602 398 l 1
 602 442 l 1
 198 442 l 1
242 303 m 0
 242 307 244 309 248 309 c 0
 252 309 254 307 254 303 c 0
 254 299 252 297 248 297 c 0
 244 297 242 299 242 303 c 0
224 303 m 0
 224 307 226 309 230 309 c 0
 234 309 236 307 236 303 c 0
 236 299 234 297 230 297 c 0
 226 297 224 299 224 303 c 0
206 303 m 0
 206 307 208 309 212 309 c 0
 216 309 218 307 218 303 c 0
 218 299 216 297 212 297 c 0
 208 297 206 299 206 303 c 0
198 316 m 1
 198 272 l 1
 602 272 l 1
 602 316 l 1
 198 316 l 1
EndSplineSet
Validated: 1
EndChar

StartChar: N
Encoding: 78 78 28
Width: 800
VWidth: 0
Flags: W
HStem: 160 40<160.007 380 420 639.993> 240 40<280 380 420 520> 414 20<294.003 313.997> 566 21<294.012 313.988 325.012 344.988> 600 40<280 520>
VStem: 240 40<280 600> 294 20<414.003 433.997 566.003 586.996> 325 20<566.003 586.996> 380 40<200 240> 520 40<280 600>
LayerCount: 2
Fore
SplineSet
294 424 m 0
 294 430 298 434 304 434 c 0
 310 434 314 430 314 424 c 0
 314 418 310 414 304 414 c 0
 298 414 294 418 294 424 c 0
325 576 m 0
 325 582 329 587 335 587 c 0
 341 587 345 582 345 576 c 0
 345 570 341 566 335 566 c 0
 329 566 325 570 325 576 c 0
294 576 m 0
 294 582 298 587 304 587 c 0
 310 587 314 582 314 576 c 0
 314 570 310 566 304 566 c 0
 298 566 294 570 294 576 c 0
280 280 m 1
 520 280 l 1
 520 600 l 1
 280 600 l 1
 280 280 l 1
180 160 m 2
 169 160 160 169 160 180 c 0
 160 191 169 200 180 200 c 2
 380 200 l 1
 380 240 l 1
 280 240 l 2
 258 240 240 258 240 280 c 2
 240 600 l 2
 240 622 258 640 280 640 c 2
 520 640 l 2
 542 640 560 622 560 600 c 2
 560 280 l 2
 560 258 542 240 520 240 c 2
 420 240 l 1
 420 200 l 1
 620 200 l 2
 631 200 640 191 640 180 c 0
 640 169 631 160 620 160 c 2
 180 160 l 2
EndSplineSet
Validated: 1
EndChar

StartChar: O
Encoding: 79 79 29
Width: 800
VWidth: 0
Flags: W
HStem: 160 60<300.13 499.87> 580 19<368 432> 616 24<368 432>
VStem: 280 20<220 580> 500 20<220 580>
LayerCount: 2
Fore
SplineSet
368 599 m 5
 432 599 l 5
 432 616 l 5
 368 616 l 5
 368 599 l 5
520 600 m 2
 520 200 l 2
 520 178 502 160 480 160 c 2
 320 160 l 2
 298 160 280 178 280 200 c 2
 280 600 l 2
 280 622 298 640 320 640 c 2
 480 640 l 2
 502 640 520 622 520 600 c 2
500 580 m 1
 300 580 l 1
 300 220 l 1
 368 220 435 220 500 220 c 1
 500 580 l 1
EndSplineSet
Validated: 1
EndChar

StartChar: P
Encoding: 80 80 30
Width: 800
VWidth: 0
Flags: W
HStem: 150 50<250 430> 300 20<450 550> 600 50<250 550>
VStem: 200 50<200 600> 430 20<200 300> 550 49<320 600>
LayerCount: 2
Fore
SplineSet
450 190 m 1
 558 300 l 1
 450 300 l 1
 450 190 l 1
430 200 m 25
 430 320 l 1
 550 320 l 25
 550 600 l 1
 250 600 l 1
 250 200 l 1
 430 200 l 25
225 150 m 2
 211 150 200 161 200 175 c 2
 200 625 l 2
 200 639 211 650 225 650 c 2
 575 650 l 2
 589 650 600 639 600 625 c 2
 599 299 l 1
 448 151 l 1
 225 150 l 2
EndSplineSet
Validated: 1
EndChar

StartChar: Q
Encoding: 81 81 31
Width: 800
VWidth: 0
Flags: W
HStem: 238 40<222.99 577.01> 518 36<365.023 577.01> 518 7<221 339> 548 39<222.99 337.404>
VStem: 176 44<279.301 518> 580 44<279.301 516.805>
LayerCount: 2
Fore
SplineSet
378 554 m 5xcc
 565 554 l 2xcc
 598 554 624 528 624 495 c 2
 624 297 l 2
 624 264 598 238 565 238 c 2
 235 238 l 2
 202 238 176 264 176 297 c 2
 176 528 l 2
 176 561 202 587 235 587 c 2
 325 587 l 6x9c
 348 587 366 576 378 554 c 5xcc
220 518 m 1xac
 220 308 l 2
 220 291 233 278 250 278 c 2
 550 278 l 2
 567 278 580 291 580 308 c 2
 580 488 l 2
 580 505 567 518 550 518 c 2xcc
 220 518 l 1xac
339 525 m 1xbc
 336 538 324 548 310 548 c 2
 250 548 l 2
 236 548 224 538 221 525 c 1
 339 525 l 1xbc
EndSplineSet
Validated: 1
EndChar

StartChar: R
Encoding: 82 82 32
Width: 800
VWidth: 0
Flags: W
HStem: 484 110G<130 670>
LayerCount: 2
Fore
SplineSet
438 393 m 5
 553 234 l 5
 247 234 l 5
 362 392 l 5
 400 374 l 5
 438 393 l 5
455 400 m 5
 670 504 l 5
 670 279 l 6
 670 254 650 234 625 234 c 6
 580 234 l 5
 455 400 l 5
345 400 m 5
 220 234 l 5
 175 234 l 6
 150 234 130 254 130 279 c 6
 130 504 l 5
 345 400 l 5
400 401 m 5
 130 531 l 5
 130 549 l 6
 130 574 150 594 175 594 c 6
 625 594 l 6
 650 594 670 574 670 549 c 6
 670 531 l 5
 400 401 l 5
EndSplineSet
Validated: 1
EndChar

StartChar: S
Encoding: 83 83 33
Width: 800
VWidth: 0
Flags: W
HStem: 216 18<149.007 220 247 553 580 650.993> 594 19<148.013 651.987>
VStem: 112 18<253.007 504 531 575.987> 670 18<253.007 504 531 575.987>
LayerCount: 2
Fore
SplineSet
160 613 m 2
 640 613 l 2
 667 613 688 592 688 565 c 2
 688 264 l 2
 688 237 667 216 640 216 c 2
 160 216 l 2
 133 216 112 237 112 264 c 2
 112 565 l 2
 112 592 133 613 160 613 c 2
438 393 m 1
 400 374 l 1
 362 392 l 1
 247 234 l 1
 553 234 l 1
 438 393 l 1
455 400 m 1
 580 234 l 1
 625 234 l 2
 650 234 670 254 670 279 c 2
 670 504 l 1
 455 400 l 1
345 400 m 1
 130 504 l 1
 130 279 l 2
 130 254 150 234 175 234 c 2
 220 234 l 1
 345 400 l 1
400 401 m 1
 670 531 l 1
 670 549 l 2
 670 574 650 594 625 594 c 2
 175 594 l 2
 150 594 130 574 130 549 c 2
 130 531 l 1
 400 401 l 1
EndSplineSet
Validated: 1
EndChar

StartChar: T
Encoding: 84 84 34
Width: 800
VWidth: 0
Flags: W
HStem: 360 80<208 268> 461 41G<316.774 353 394 420.5 433 473.5 495.667 541.5>
VStem: 208 174<360.412 439.588> 422 22<356.946 443.054> 475 33<332.657 467.343> 545 47<308.76 491.24>
LayerCount: 2
Fore
SplineSet
394 333 m 5
 411 350 422 374 422 400 c 4
 422 426 411 450 394 467 c 5
 410 481 l 5
 431 460 444 431 444 400 c 4
 444 369 431 340 410 319 c 5
 394 333 l 5
484 254 m 5
 522 292 545 343 545 400 c 4
 545 457 522 508 484 546 c 5
 519 576 l 5
 564 531 592 468 592 400 c 4
 592 332 564 269 519 224 c 5
 484 254 l 5
433 298 m 5
 459 324 475 360 475 400 c 4
 475 440 459 476 433 502 c 5
 458 522 l 5
 489 491 508 448 508 400 c 4
 508 352 489 309 458 278 c 5
 433 298 l 5
208 360 m 5
 208 387 208 413 208 440 c 5
 268 440 l 5
 340 502 l 5
 366 476 382 440 382 400 c 4
 382 360 366 324 340 298 c 5
 268 360 l 5
 208 360 l 5
EndSplineSet
Validated: 1
EndChar

StartChar: U
Encoding: 85 85 35
Width: 800
VWidth: 0
Flags: W
HStem: 204 129<371.52 428.48> 364 236<354.339 445.661> 475 20G<285 318 482 515>
VStem: 285 33<365.632 495> 341 118<377.339 586.661> 371 58<204 294.319> 482 33<365.632 495>
LayerCount: 2
Fore
SplineSet
341 423 m 2xda
 341 541 l 2
 341 574 367 600 400 600 c 0
 433 600 459 574 459 541 c 2
 459 423 l 2
 459 390 433 364 400 364 c 0
 367 364 341 390 341 423 c 2xda
515 495 m 1xb6
 515 430 515 464 515 399 c 0
 515 345 479 300 429 287 c 1
 429 204 l 1
 371 204 l 1
 371 287 l 1
 321 300 285 345 285 399 c 0
 285 464 285 430 285 495 c 1
 318 495 l 1
 318 449 318 461 318 415 c 0
 318 369 354 333 400 333 c 0
 446 333 482 369 482 415 c 0
 482 461 482 449 482 495 c 1
 515 495 l 1xb6
EndSplineSet
Validated: 1
EndChar

StartChar: V
Encoding: 86 86 36
Width: 800
VWidth: 0
Flags: W
HStem: 242 29<486.145 601.69> 385 30<128 385 415 673> 529 29<198.426 313.855>
VStem: 385 29<342.771 385 415 457.904>
CounterMasks: 1 e0
LayerCount: 2
Fore
SplineSet
414 415 m 5
 702 415 l 5
 702 400 l 6
 702 313 631 242 544 242 c 4
 462 242 394 305 386 385 c 5
 98 385 l 5
 98 400 l 6
 98 487 169 558 256 558 c 4
 338 558 406 495 414 415 c 5
128 415 m 5
 385 415 l 5
 377 479 322 529 256 529 c 4
 190 529 136 479 128 415 c 5
673 385 m 5
 415 385 l 5
 423 321 478 271 544 271 c 4
 610 271 665 321 673 385 c 5
EndSplineSet
Validated: 1
EndChar

StartChar: W
Encoding: 87 87 37
Width: 800
VWidth: 0
Flags: W
HStem: 605 20G<387.5 420.5 520.5 539.5 636.373 648.5>
LayerCount: 2
Fore
SplineSet
157 123 m 5
 146 127 134 131 123 135 c 5
 159 236 193 337 229 438 c 5
 245 396 260 355 276 313 c 5
 321 417 365 521 410 625 c 5
 431 580 452 534 473 489 c 5
 492 534 511 579 530 624 c 5
 549 585 568 546 587 507 c 5
 643 676 l 5
 654 672 666 669 677 665 c 5
 649 581 622 496 594 412 c 5
 573 454 553 495 532 537 c 5
 513 492 493 446 474 401 c 5
 453 446 432 491 411 536 c 5
 365 429 320 323 274 216 c 5
 260 255 244 294 230 333 c 5
 157 123 l 5
EndSplineSet
Validated: 1
EndChar

StartChar: X
Encoding: 88 88 38
Width: 800
VWidth: 0
Flags: W
HStem: 100 80<180 620>
VStem: 100 80<180 400> 374 52<400 699.951> 620 80<180 400>
CounterMasks: 1 70
LayerCount: 2
Fore
SplineSet
420 700 m 1
 424 699 425 695 426 690 c 18
 426 400 l 1
 468 400 l 2
 482 400 477 390 476 384 c 1
 404 292 l 2
 403 291 403 290 400 290 c 0
 398 290 397 291 396 292 c 2
 324 384 l 1
 323 390 318 400 332 400 c 2
 374 400 l 1
 374 690 l 10
 374 693 374 695 375 697 c 24
 376 699 380 700 380 700 c 1
 394 700 406 700 420 700 c 1
620 400 m 1
 647 400 673 400 700 400 c 1
 700 300 700 200 700 100 c 1
 100 100 l 1
 100 200 100 300 100 400 c 1
 127 400 153 400 180 400 c 1
 180 180 l 1
 620 180 l 1
 620 400 l 1
EndSplineSet
Validated: 1
EndChar

StartChar: Y
Encoding: 89 89 39
Width: 800
VWidth: 0
Flags: W
HStem: 100 80<180 620>
VStem: 100 80<180 400> 374 52<290.049 590> 620 80<180 400>
CounterMasks: 1 70
LayerCount: 2
Fore
SplineSet
380 290 m 1
 376 291 375 295 374 300 c 18
 374 590 l 1
 332 590 l 2
 318 590 323 600 324 606 c 1
 396 698 l 2
 397 699 397 700 400 700 c 0
 402 700 403 699 404 698 c 2
 476 606 l 1
 477 600 482 590 468 590 c 2
 426 590 l 1
 426 300 l 10
 426 297 426 295 425 293 c 24
 424 291 420 290 420 290 c 1
 406 290 394 290 380 290 c 1
620 400 m 1
 647 400 673 400 700 400 c 1
 700 300 700 200 700 100 c 1
 100 100 l 1
 100 200 100 300 100 400 c 1
 127 400 153 400 180 400 c 1
 180 180 l 1
 620 180 l 1
 620 400 l 1
EndSplineSet
Validated: 1
EndChar

StartChar: Z
Encoding: 90 90 40
Width: 800
VWidth: 0
Flags: W
HStem: 241 23<384 416> 436 6<490 513> 449 6<490 525> 458 98<384 416 482 540>
VStem: 240 144<264 458> 416 66<422 458> 490 23<436 442> 540 20<422 461>
LayerCount: 2
Fore
SplineSet
560 481 m 1
 560 241 l 1
 240 241 l 1
 240 481 l 1
 160 559 l 1
 179 559 l 1
 240 499 l 1
 240 556 l 1
 560 556 l 1
 560 499 l 1
 621 559 l 1
 640 559 l 1
 560 481 l 1
384 264 m 1
 416 264 l 1
 416 458 l 1
 384 458 l 1
 384 264 l 1
482 422 m 1
 540 422 l 1
 540 461 l 1
 482 461 l 1
 482 422 l 1
490 455 m 5
 525 455 l 5
 525 449 l 5
 490 449 l 5
 490 455 l 5
490 442 m 5
 513 442 l 5
 513 436 l 5
 490 436 l 5
 490 442 l 5
EndSplineSet
Validated: 1
EndChar

StartChar: a
Encoding: 97 97 41
Width: 800
VWidth: 0
Flags: W
HStem: 100 70<379.266 420.734> 191 75<195 208 592 605> 200 50<324.724 475.276> 534 75<195 208 592 605> 550 50<324.724 475.276> 630 70<379.266 420.734>
VStem: 100 70<379.266 420.734> 191 75<195 208 592 605> 200 50<324.724 475.276> 534 75<195 208 592 605> 550 50<324.724 475.276> 630 70<379.266 420.734>
LayerCount: 2
Fore
SplineSet
605 614 m 2x9650
 611 615 615 611 614 605 c 2
 609 542 l 2
 609 535 599 529 592 534 c 1
 573 553 553 573 534 592 c 0
 529 599 535 609 542 609 c 2
 605 614 l 2x9650
195 186 m 2
 189 185 185 189 186 195 c 2
 191 258 l 2
 191 265 201 271 208 266 c 1
 227 247 247 227 266 208 c 0
 271 201 265 191 258 191 c 2xc710
 195 186 l 2
630 441 m 0
 631 448 642 453 648 447 c 2
 696 406 l 2
 698 405 700 402 700 400 c 0
 700 398 698 395 696 394 c 2
 648 353 l 2
 642 347 631 352 630 359 c 0
 630 386 630 414 630 441 c 0
170 359 m 0
 169 352 158 347 152 353 c 2
 104 394 l 2
 102 395 100 398 100 400 c 0
 100 402 102 405 104 406 c 2
 152 447 l 2
 158 453 169 448 170 441 c 0
 170 414 170 386 170 359 c 0
614 195 m 2
 615 189 611 185 605 186 c 2
 542 191 l 2
 535 191 529 201 534 208 c 1
 553 227 573 247 592 266 c 0
 599 271 609 265 609 258 c 2xc650
 614 195 l 2
186 605 m 2
 185 611 189 615 195 614 c 2
 258 609 l 2
 265 609 271 599 266 592 c 1
 247 573 227 553 208 534 c 0
 201 529 191 535 191 542 c 2x9710
 186 605 l 2
441 170 m 0
 448 169 453 158 447 152 c 2
 406 104 l 2
 405 102 402 100 400 100 c 0
 398 100 395 102 394 104 c 2
 353 152 l 2
 347 158 352 169 359 170 c 0
 386 170 414 170 441 170 c 0
359 630 m 0
 352 631 347 642 353 648 c 2
 394 696 l 2
 395 698 398 700 400 700 c 0
 402 700 405 698 406 696 c 2
 447 648 l 2
 453 642 448 631 441 630 c 0
 414 630 386 630 359 630 c 0
250 400 m 0xaeb0
 250 318 318 250 400 250 c 0
 482 250 550 318 550 400 c 0
 550 482 482 550 400 550 c 0
 318 550 250 482 250 400 c 0xaeb0
200 400 m 0
 200 510 290 600 400 600 c 0
 510 600 600 510 600 400 c 0
 600 290 510 200 400 200 c 0
 290 200 200 290 200 400 c 0
EndSplineSet
Validated: 1
EndChar

StartChar: b
Encoding: 98 98 42
Width: 800
VWidth: 0
Flags: W
HStem: 100 70<379.266 420.734> 191 75<195 208 592 605> 200 50<400 473.147> 534 75<195 208 592 605> 550 50<400 473.147> 630 70<379.266 420.734>
VStem: 100 70<379.266 420.734> 191 75<195 208 592 605> 200 200<309.151 490.849> 534 75<195 208 592 605> 550 50<325.412 474.588> 630 70<379.266 420.734>
LayerCount: 2
Fore
SplineSet
605 614 m 2x9650
 611 615 615 611 614 605 c 2
 609 542 l 2
 609 535 599 529 592 534 c 1
 573 553 553 573 534 592 c 0
 529 599 535 609 542 609 c 2
 605 614 l 2x9650
  Spiro
    605 614 ]
    610.218 613.446 o
    613.446 610.218 o
    614 605 [
    609 542 ]
    606.153 535.709 o
    599.511 532.295 o
    592 534 v
    534 592 [
    532.295 599.511 o
    535.709 606.153 o
    542 609 [
    0 0 z
  EndSpiro
195 186 m 2
 189 185 185 189 186 195 c 2
 191 258 l 2
 191 265 201 271 208 266 c 1
 227 247 247 227 266 208 c 0
 271 201 265 191 258 191 c 2xc710
 195 186 l 2
  Spiro
    195 186 ]
    189.782 186.554 o
    186.554 189.782 o
    186 195 [
    191 258 ]
    193.847 264.291 o
    200.489 267.705 o
    208 266 v
    266 208 [
    267.705 200.489 o
    264.291 193.847 o
    258 191 [
    0 0 z
  EndSpiro
630 441 m 0
 631 448 642 453 648 447 c 2
 696 406 l 2
 698 405 700 402 700 400 c 0
 700 398 698 395 696 394 c 2
 648 353 l 2
 642 347 631 352 630 359 c 0
 630 386 630 414 630 441 c 0
  Spiro
    630 441 o
    633.772 446.995 o
    640.897 449.667 o
    648 447 [
    696 406 ]
    697.924 404.446 o
    699.409 402.22 o
    700 400 o
    699.409 397.78 o
    697.924 395.554 o
    696 394 [
    648 353 ]
    640.897 350.333 o
    633.772 353.005 o
    630 359 o
    0 0 z
  EndSpiro
170 359 m 0
 169 352 158 347 152 353 c 2
 104 394 l 2
 102 395 100 398 100 400 c 0
 100 402 102 405 104 406 c 2
 152 447 l 2
 158 453 169 448 170 441 c 0
 170 414 170 386 170 359 c 0
  Spiro
    170 359 o
    166.228 353.005 o
    159.103 350.333 o
    152 353 [
    104 394 ]
    102.076 395.554 o
    100.591 397.78 o
    100 400 o
    100.591 402.22 o
    102.076 404.446 o
    104 406 [
    152 447 ]
    159.103 449.667 o
    166.228 446.995 o
    170 441 o
    0 0 z
  EndSpiro
614 195 m 2
 615 189 611 185 605 186 c 2
 542 191 l 2
 535 191 529 201 534 208 c 1
 553 227 573 247 592 266 c 0
 599 271 609 265 609 258 c 2xc650
 614 195 l 2
  Spiro
    614 195 ]
    613.446 189.782 o
    610.218 186.554 o
    605 186 [
    542 191 ]
    535.709 193.847 o
    532.295 200.489 o
    534 208 v
    592 266 [
    599.511 267.705 o
    606.153 264.291 o
    609 258 [
    0 0 z
  EndSpiro
186 605 m 2
 185 611 189 615 195 614 c 2
 258 609 l 2
 265 609 271 599 266 592 c 1
 247 573 227 553 208 534 c 0
 201 529 191 535 191 542 c 2x9710
 186 605 l 2
  Spiro
    186 605 ]
    186.554 610.218 o
    189.782 613.446 o
    195 614 [
    258 609 ]
    264.291 606.153 o
    267.705 599.511 o
    266 592 v
    208 534 [
    200.489 532.295 o
    193.847 535.709 o
    191 542 [
    0 0 z
  EndSpiro
441 170 m 0
 448 169 453 158 447 152 c 2
 406 104 l 2
 405 102 402 100 400 100 c 0x8690
 398 100 395 102 394 104 c 2
 353 152 l 2
 347 158 352 169 359 170 c 0
 386 170 414 170 441 170 c 0
  Spiro
    441 170 o
    446.995 166.228 o
    449.667 159.103 o
    447 152 [
    406 104 ]
    404.446 102.076 o
    402.22 100.591 o
    400 100 o
    397.78 100.591 o
    395.554 102.076 o
    394 104 [
    353 152 ]
    350.333 159.103 o
    353.005 166.228 o
    359 170 o
    0 0 z
  EndSpiro
359 630 m 0
 352 631 347 642 353 648 c 2
 394 696 l 2
 395 698 398 700 400 700 c 0
 402 700 405 698 406 696 c 2
 447 648 l 2
 453 642 448 631 441 630 c 0
 414 630 386 630 359 630 c 0
  Spiro
    359 630 o
    353.005 633.772 o
    350.333 640.897 o
    353 648 [
    394 696 ]
    395.554 697.924 o
    397.78 699.409 o
    400 700 o
    402.22 699.409 o
    404.446 697.924 o
    406 696 [
    447 648 ]
    449.667 640.897 o
    446.995 633.772 o
    441 630 o
    0 0 z
  EndSpiro
400 250 m 0xaeb0
 426 250 453 257 475 271 c 0
 498 284 516 303 529 325 c 0
 543 347 550 374 550 400 c 0
 550 426 543 453 529 475 c 0
 516 497 498 516 475 529 c 0
 453 543 426 550 400 550 c 0
 400 250 l 0xaeb0
200 400 m 0
 200 510 290 600 400 600 c 0
 510 600 600 510 600 400 c 0
 600 290 510 200 400 200 c 0
 290 200 200 290 200 400 c 0
  Spiro
    200 400 o
    227.355 500.652 o
    299.348 572.645 o
    400 600 o
    500.652 572.645 o
    572.645 500.652 o
    600 400 o
    572.645 299.348 o
    500.652 227.355 o
    400 200 o
    299.348 227.355 o
    227.355 299.348 o
    0 0 z
  EndSpiro
EndSplineSet
Validated: 1
EndChar

StartChar: c
Encoding: 99 99 43
Width: 800
VWidth: 0
Flags: W
HStem: 100 70<379.266 420.734> 191 75<195 208 592 605> 200 21G<345 455> 534 75<195 208 592 605> 580 20G<345 455> 630 70<379.266 420.734>
VStem: 100 70<379.266 420.734> 191 75<195 208 592 605> 534 75<195 208 592 605> 630 70<379.266 420.734>
LayerCount: 2
Fore
SplineSet
605 614 m 2x97c0
 611 615 615 611 614 605 c 2
 609 542 l 2
 609 535 599 529 592 534 c 1
 573 553 553 573 534 592 c 0
 529 599 535 609 542 609 c 2
 605 614 l 2x97c0
195 186 m 2
 189 185 185 189 186 195 c 2
 191 258 l 2
 191 265 201 271 208 266 c 1
 227 247 247 227 266 208 c 0
 271 201 265 191 258 191 c 2xc7c0
 195 186 l 2
630 441 m 0
 631 448 642 453 648 447 c 2
 696 406 l 2
 698 405 700 402 700 400 c 0
 700 398 698 395 696 394 c 2
 648 353 l 2
 642 347 631 352 630 359 c 0
 630 386 630 414 630 441 c 0
170 359 m 0
 169 352 158 347 152 353 c 2
 104 394 l 2
 102 395 100 398 100 400 c 0
 100 402 102 405 104 406 c 2
 152 447 l 2
 158 453 169 448 170 441 c 0
 170 414 170 386 170 359 c 0
614 195 m 2
 615 189 611 185 605 186 c 2
 542 191 l 2
 535 191 529 201 534 208 c 1
 553 227 573 247 592 266 c 0
 599 271 609 265 609 258 c 2
 614 195 l 2
186 605 m 2
 185 611 189 615 195 614 c 2
 258 609 l 2
 265 609 271 599 266 592 c 1
 247 573 227 553 208 534 c 0x97c0
 201 529 191 535 191 542 c 2
 186 605 l 2
441 170 m 0
 448 169 453 158 447 152 c 2
 406 104 l 2
 405 102 402 100 400 100 c 0
 398 100 395 102 394 104 c 2
 353 152 l 2
 347 158 352 169 359 170 c 0
 386 170 414 170 441 170 c 0
359 630 m 0
 352 631 347 642 353 648 c 2
 394 696 l 2
 395 698 398 700 400 700 c 0
 402 700 405 698 406 696 c 2
 447 648 l 2
 453 642 448 631 441 630 c 0
 414 630 386 630 359 630 c 0
200 400 m 0
 200 510 290 600 400 600 c 0
 510 600 600 510 600 400 c 0
 600 290 510 200 400 200 c 0xafc0
 290 200 200 290 200 400 c 0
EndSplineSet
Validated: 1
EndChar

StartChar: d
Encoding: 100 100 44
Width: 800
VWidth: 0
Flags: W
HStem: 200 50<324.724 475.276> 550 50<324.724 475.276>
VStem: 200 50<324.724 475.276> 550 50<324.724 475.276>
LayerCount: 2
Fore
SplineSet
250 400 m 0
 250 318 318 250 400 250 c 0
 482 250 550 318 550 400 c 0
 550 482 482 550 400 550 c 0
 318 550 250 482 250 400 c 0
200 400 m 0
 200 510 290 600 400 600 c 0
 510 600 600 510 600 400 c 0
 600 290 510 200 400 200 c 0
 290 200 200 290 200 400 c 0
EndSplineSet
Validated: 1
EndChar

StartChar: e
Encoding: 101 101 45
Width: 800
VWidth: 0
Flags: W
HStem: 200 50<400 473.147> 550 50<400 473.147>
VStem: 200 200<309.151 490.849> 550 50<324.724 475.276>
LayerCount: 2
Fore
SplineSet
400 550 m 1
 400 250 l 1
 482 250 550 318 550 400 c 0
 550 482 482 550 400 550 c 1
200 400 m 0
 200 510 290 600 400 600 c 0
 510 600 600 510 600 400 c 0
 600 290 510 200 400 200 c 0
 290 200 200 290 200 400 c 0
EndSplineSet
Validated: 1
EndChar

StartChar: f
Encoding: 102 102 46
Width: 800
VWidth: 0
Flags: W
HStem: 200 400<309.151 490.849>
VStem: 200 400<309.151 490.849>
LayerCount: 2
Fore
SplineSet
200 400 m 0
 200 510 290 600 400 600 c 0
 510 600 600 510 600 400 c 0
 600 290 510 200 400 200 c 0
 290 200 200 290 200 400 c 0
EndSplineSet
Validated: 1
EndChar

StartChar: g
Encoding: 103 103 47
Width: 800
VWidth: 0
Flags: W
HStem: 580 20G<397.5 402.5>
LayerCount: 2
Fore
SplineSet
400 299 m 5
 296 238 l 2
 286 232 276 241 278 251 c 2
 304 369 l 1
 214 449 l 2
 206 456 211 469 221 470 c 2
 341 482 l 1
 389 592 l 2
 391 597 395 600 400 600 c 0
 405 600 409 597 411 592 c 2
 459 482 l 1
 579 470 l 2
 589 469 594 456 586 449 c 2
 496 369 l 1
 522 251 l 2
 524 241 514 232 504 238 c 2
 400 299 l 5
EndSplineSet
Validated: 1
EndChar

StartChar: h
Encoding: 104 104 48
Width: 800
VWidth: 0
Flags: W
HStem: 563 20G<272.5 327.5 472.5 527.5>
LayerCount: 2
Fore
SplineSet
200 463 m 4
 200 518 245 583 300 583 c 4
 355 583 400 538 400 483 c 5
 400 538 445 583 500 583 c 4
 555 583 600 518 600 463 c 4
 600 408 478 287 400 183 c 5
 322 287 200 408 200 463 c 4
EndSplineSet
Validated: 1
EndChar

StartChar: i
Encoding: 105 105 49
Width: 800
VWidth: 0
Flags: W
HStem: 162 65<356.665 443.335> 568 20G<306.5 313 390.5 423.5 492.5 507>
VStem: 242 103<241.308 341.904> 310 7<502 585.546> 455 103<241.308 340.718> 505 3<557.525 566.344>
LayerCount: 2
Fore
SplineSet
345 282 m 0xe8
 345 252 370 227 400 227 c 0
 430 227 455 252 455 282 c 0
 455 312 421 363 400 397 c 25
 379 363 345 312 345 282 c 0xe8
242 322 m 0
 242 411 303 444 310 588 c 1
 316 535 317 523 317 513 c 0
 317 512 317 512 317 511 c 0
 317 502 317 494 322 455 c 0
 325 433 327 422 331 422 c 0
 337 422 344 446 355 485 c 0
 369 536 357 516 424 662 c 1
 423 645 419 629 419 608 c 0
 419 576 428 531 468 448 c 0
 476 432 478 423 479 423 c 0
 481 423 477 464 508 567 c 1
 506 553 505 539 505 527 c 0xd4
 505 435 558 400 558 322 c 0
 558 233 488 162 400 162 c 0
 312 162 242 233 242 322 c 0
EndSplineSet
Validated: 1
EndChar

StartChar: j
Encoding: 106 106 50
Width: 800
VWidth: 0
Flags: W
HStem: 368 63<379 421> 632 20G<377.423 522>
VStem: 251 298
LayerCount: 2
Fore
SplineSet
387 652 m 1
 522 652 l 1
 379 431 l 1
 549 431 l 1
 336 130 l 5
 421 368 l 1
 251 368 l 1
 387 652 l 1
EndSplineSet
Validated: 1
EndChar

StartChar: k
Encoding: 107 107 51
Width: 800
VWidth: 0
Flags: W
HStem: 240 30<325 385 415 475> 293 22<351 385 415 449> 469 21G<129.667 209.286 590.714 670.333> 485 22<351 385 415 449> 530 30<325 385 415 475> 575 20G<178 212.385 329.909 369.571 430.429 470.091 587.615 622>
VStem: 385 30<99 149 193 240 270 293 315 373 427 485 507 530 560 607 651 701>
LayerCount: 2
Fore
SplineSet
462 293 m 1xce
 415 293 l 1
 415 270 l 1
 475 270 l 1
 505 321 l 1
 485 333 l 1
 462 293 l 1xce
415 373 m 1
 415 315 l 1
 449 315 l 1
 466 344 l 1
 415 373 l 1
351 315 m 1
 385 315 l 1
 385 373 l 1
 334 344 l 1
 351 315 l 1
325 270 m 1
 385 270 l 1
 385 293 l 1
 338 293 l 1
 315 333 l 1
 295 321 l 1
 325 270 l 1
523 400 m 1
 500 360 l 1
 521 348 l 1
 551 400 l 1
 521 452 l 1
 500 440 l 1
 523 400 l 1
431 400 m 1
 482 371 l 1
 499 400 l 1
 482 429 l 1
 431 400 l 1
215 400 m 1
 253 467 l 1
 213 490 l 1
 135 469 l 1
 127 499 l 1
 175 512 l 1
 132 537 l 1
 137 546 142 555 147 564 c 1
 190 539 l 1
 178 587 l 1
 207 595 l 1
 228 517 l 1
 269 494 l 1
 307 560 l 1
 385 560 l 1
 385 607 l 1
 328 664 l 1
 349 686 l 1
 385 651 l 1
 385 701 l 1
 400 701 l 1
 415 701 l 1
 415 651 l 1
 451 686 l 1
 472 664 l 1
 415 607 l 1
 415 560 l 1
 493 560 l 1
 531 494 l 1
 572 517 l 1
 593 595 l 1
 622 587 l 1
 610 539 l 1
 653 564 l 1
 658 555 663 546 668 537 c 1
 625 512 l 1
 673 499 l 1
 665 469 l 1
 587 490 l 1xee
 547 467 l 1
 585 400 l 1
 547 333 l 1
 587 310 l 1
 665 331 l 1
 673 301 l 1
 625 288 l 1
 668 263 l 1
 663 254 658 245 653 236 c 1
 610 261 l 1
 622 213 l 1
 593 205 l 1
 572 283 l 1
 531 306 l 1
 493 240 l 1
 415 240 l 1
 415 193 l 1
 472 136 l 1
 451 114 l 1
 415 149 l 1
 415 99 l 1
 400 99 l 1
 385 99 l 1
 385 149 l 1
 349 114 l 1
 328 136 l 1
 385 193 l 1
 385 240 l 1
 307 240 l 1
 269 306 l 1
 228 283 l 1
 207 205 l 1
 178 213 l 1
 190 261 l 1
 147 236 l 1
 142 245 137 254 132 263 c 1
 175 288 l 1
 127 301 l 1
 135 331 l 1
 213 310 l 1
 253 333 l 1
 215 400 l 1
338 507 m 1xde
 385 507 l 1
 385 530 l 1
 325 530 l 1
 295 479 l 1
 315 467 l 1
 338 507 l 1xde
385 427 m 1
 385 485 l 1
 351 485 l 1
 334 456 l 1
 385 427 l 1
449 485 m 1
 415 485 l 1
 415 427 l 1
 466 456 l 1
 449 485 l 1
475 530 m 1
 415 530 l 1
 415 507 l 1
 462 507 l 1
 485 467 l 1
 505 479 l 1
 475 530 l 1
277 400 m 1
 300 440 l 1
 279 452 l 1
 249 400 l 1
 279 348 l 1
 300 360 l 1
 277 400 l 1
369 400 m 1
 318 429 l 1
 301 400 l 1
 318 371 l 1
 369 400 l 1
EndSplineSet
Validated: 1
EndChar

StartChar: l
Encoding: 108 108 52
Width: 800
VWidth: 0
Flags: W
HStem: 154 55<356 479.44> 634 20G<370.5 432.5>
VStem: 242 196<233.051 358.5> 501 57<233.037 359.495>
LayerCount: 2
Fore
SplineSet
483 316 m 0
 461 316 438 269 438 239 c 0
 438 224 442 209 456 209 c 0
 478 209 501 256 501 286 c 0
 501 301 497 316 483 316 c 0
242 314 m 4
 242 403 341 547 400 654 c 29
 465 547 558 403 558 314 c 4
 558 225 488 154 400 154 c 4
 312 154 242 225 242 314 c 4
EndSplineSet
Validated: 1
EndChar

StartChar: m
Encoding: 109 109 53
Width: 800
VWidth: 0
Flags: W
HStem: 251 30<412 475.996> 312 30<412 475.996> 570 30<367.702 432.298>
VStem: 325 30<492.527 557.298> 380 32<281 312 342 454.962> 445 30<492.693 557.298>
LayerCount: 2
Fore
SplineSet
394 251 m 2
 385 251 380 258 380 266 c 2
 380 453 l 1
 348 462 325 491 325 525 c 0
 325 566 359 600 400 600 c 0
 441 600 475 566 475 525 c 0
 475 488 448 457 412 451 c 1
 412 342 l 1
 462 342 l 2
 471 342 476 335 476 327 c 27
 476 320 472 312 462 312 c 2
 412 312 l 1
 412 281 l 1
 462 281 l 2
 471 281 476 274 476 266 c 27
 476 259 472 251 462 251 c 2
 394 251 l 2
355 525 m 0
 355 501 376 480 400 480 c 0
 424 480 445 501 445 525 c 0
 445 549 424 570 400 570 c 0
 376 570 355 549 355 525 c 0
EndSplineSet
Validated: 1
EndChar

StartChar: n
Encoding: 110 110 54
Width: 800
VWidth: 0
Flags: W
HStem: 201 43<385 415> 352 48<375.198 424.802> 526 30<360.347 439.653>
VStem: 250 135<244.555 326.626> 308 30<400 503.337> 415 135<244.555 326.626> 462 30<400 503.337>
LayerCount: 2
Fore
SplineSet
540 422 m 1049,0,-1
462 400 m 1,1,-1
 462 464 l 2,2,-1
 462 498 434 526 400 526 c 0,5,-1
 366 526 338 498 338 464 c 2,8,-1
 338 400 l 1,9,-1
 462 400 l 1,1,-1
492 400 m 1,10,-1
 500 400 l 2,11,-1
 527 400 550 378 550 350 c 2,14,-1
 550 251 l 2,15,-1
 550 223 528 201 500 201 c 2,18,-1
 300 201 l 2,19,-1
 272 201 250 223 250 251 c 2,22,-1
 250 350 l 2,23,-1
 250 378 272 400 300 400 c 2,26,-1
 308 400 l 1,27,-1
 308 464 l 2,28,-1
 308 515 349 556 400 556 c 0,31,-1
 451 556 492 515 492 464 c 2,34,-1
 492 400 l 1,10,-1
415 307 m 1,35,-1
 421 312 425 319 425 327 c 0,38,-1
 425 341 414 352 400 352 c 0,41,-1
 386 352 375 341 375 327 c 0,44,-1
 375 319 379 312 385 307 c 1,47,-1
 385 258 l 2,48,-1
 385 249 392 244 400 244 c 0,51,-1
 407 244 415 248 415 258 c 2,54,-1
 415 307 l 1,35,-1
EndSplineSet
Validated: 1
EndChar

StartChar: o
Encoding: 111 111 55
Width: 800
VWidth: 0
Flags: W
HStem: 201 43<385 415> 352 48<375.198 424.802> 466 21G<462 492> 592 30<360.347 439.653>
VStem: 250 135<244.555 326.626> 308 30<400 569.337> 415 135<244.555 326.626> 462 30<466 569.337>
LayerCount: 2
Fore
SplineSet
308 400 m 5xf4
 308 530 l 2
 308 581 349 622 400 622 c 0
 451 622 492 581 492 530 c 2
 492 466 l 1
 462 466 l 1
 462 530 l 2
 462 564 434 592 400 592 c 0
 366 592 338 564 338 530 c 2
 338 400 l 1xf5
 500 400 l 2
 528 400 550 378 550 350 c 2
 550 251 l 2
 550 223 528 201 500 201 c 2
 300 201 l 2
 272 201 250 223 250 251 c 2
 250 350 l 2xfa
 250 378 274 400 300 400 c 2
 308 400 l 5xf4
415 307 m 1xfa
 421 312 425 319 425 327 c 0
 425 341 414 352 400 352 c 0
 386 352 375 341 375 327 c 0
 375 319 379 312 385 307 c 1
 385 258 l 2
 385 249 392 244 400 244 c 0
 407 244 415 248 415 258 c 2
 415 307 l 1xfa
EndSplineSet
Validated: 1
EndChar

StartChar: p
Encoding: 112 112 56
Width: 800
VWidth: 0
Flags: W
HStem: 300 200<183.438 322 425 425 479 616.562> 470 20G<385 415>
VStem: 175 147<319.934 480.066> 347 107<327.793 472.207> 479 146<319.934 480.066>
LayerCount: 2
Fore
SplineSet
375 500 m 6xb8
 345 500 322 455 322 400 c 4
 322 345 345 300 375 300 c 6
 225 300 l 6
 197 300 175 322 175 350 c 6
 175 450 l 6
 175 478 197 500 225 500 c 6
 375 500 l 6xb8
425 300 m 6
 455 300 479 345 479 400 c 4
 479 455 455 500 425 500 c 6
 575 500 l 6
 603 500 625 478 625 450 c 6
 625 350 l 6
 625 322 603 300 575 300 c 6
 425 300 l 6
400 310 m 4
 370 310 347 350 347 400 c 4
 347 450 370 490 400 490 c 4x78
 430 490 454 450 454 400 c 4
 454 350 430 310 400 310 c 4
EndSplineSet
Validated: 1
EndChar

StartChar: q
Encoding: 113 113 57
Width: 800
VWidth: 0
Flags: W
HStem: 278 22<193.967 375 425 606.033> 300 10<370 375 425 430> 490 10<370 375 425 430> 500 28<191.049 375 425 608.951>
VStem: 150 25<317.812 482.878> 322 25<342.42 457.58> 454 25<342.42 457.58> 625 25<317.812 482.878>
LayerCount: 2
Fore
SplineSet
200 528 m 6x9f
 600 528 l 6
 628 528 650 506 650 478 c 6
 650 328 l 6
 650 300 628 278 600 278 c 6
 200 278 l 6
 172 278 150 300 150 328 c 6
 150 478 l 6
 150 506 172 528 200 528 c 6x9f
375 500 m 2xaf
 225 500 l 2x1f
 197 500 175 478 175 450 c 2
 175 350 l 2
 175 322 197 300 225 300 c 2
 375 300 l 2
 345 300 322 345 322 400 c 0
 322 455 345 500 375 500 c 2xaf
425 300 m 2xaf
 575 300 l 2
 603 300 625 322 625 350 c 2
 625 450 l 2
 625 478 603 500 575 500 c 2x9f
 425 500 l 2
 455 500 479 455 479 400 c 0
 479 345 455 300 425 300 c 2xaf
400 310 m 0x6f
 430 310 454 350 454 400 c 0
 454 450 430 490 400 490 c 0
 370 490 347 450 347 400 c 0
 347 350 370 310 400 310 c 0x6f
EndSplineSet
Validated: 1
EndChar

StartChar: r
Encoding: 114 114 58
Width: 800
VWidth: 0
Flags: W
HStem: 210 60<327.106 384.894 469.106 526.894> 279 36<336 518> 483 36<299 555> 564 32<202.081 246>
VStem: 326 60<211.106 268.894> 468 60<211.106 268.894>
LayerCount: 2
Fore
SplineSet
528 240 m 0
 528 223 515 210 498 210 c 0
 481 210 468 223 468 240 c 0
 468 257 481 270 498 270 c 0
 515 270 528 257 528 240 c 0
326 240 m 0
 326 257 339 270 356 270 c 0
 373 270 386 257 386 240 c 0
 386 223 373 210 356 210 c 0
 339 210 326 223 326 240 c 0
220 596 m 1
 259 596 l 1
 259 596 267 596 272 590 c 0
 277 584 278 576 278 576 c 1
 290 519 l 1
 580 519 l 1
 580 519 586 519 592 513 c 0
 597 508 596 500 596 500 c 1
 552 299 l 1
 552 299 550 289 544 284 c 24
 538 279 529 279 529 279 c 1
 325 279 l 1
 325 279 316 279 310 284 c 0
 304 289 302 299 302 299 c 1
 246 564 l 1
 220 564 l 2
 209 564 202 568 202 582 c 3
 202 596 220 596 220 596 c 1
299 483 m 1
 336 315 l 1
 518 315 l 1
 555 483 l 1
 299 483 l 1
EndSplineSet
Validated: 1
EndChar

StartChar: s
Encoding: 115 115 59
Width: 800
VWidth: 0
Flags: W
HStem: 210 60<327.106 384.894 469.106 526.894> 279 240<310.283 543.717> 564 32<202.081 246>
VStem: 326 60<211.106 268.894> 468 60<211.106 268.894>
LayerCount: 2
Fore
SplineSet
528 240 m 0
 528 223 515 210 498 210 c 0
 481 210 468 223 468 240 c 0
 468 257 481 270 498 270 c 0
 515 270 528 257 528 240 c 0
326 240 m 0
 326 257 339 270 356 270 c 0
 373 270 386 257 386 240 c 0
 386 223 373 210 356 210 c 0
 339 210 326 223 326 240 c 0
220 596 m 1
 259 596 l 1
 259 596 267 596 272 590 c 0
 277 584 278 576 278 576 c 1
 290 519 l 1
 580 519 l 1
 580 519 586 519 592 513 c 0
 597 508 596 500 596 500 c 1
 552 299 l 1
 552 299 550 289 544 284 c 24
 538 279 529 279 529 279 c 1
 325 279 l 1
 325 279 316 279 310 284 c 0
 304 289 302 299 302 299 c 1
 246 564 l 1
 220 564 l 2
 209 564 202 568 202 582 c 7
 202 596 220 596 220 596 c 1
EndSplineSet
Validated: 1
EndChar

